<svg xmlns="http://www.w3.org/2000/svg" xmlns:xlink="http://www.w3.org/1999/xlink" width="512" height="512"><defs><linearGradient id="g"><stop offset="0" stop-color="#181818" stop-opacity="0"/><stop offset=".5" stop-color="#181818"/><stop offset="1" stop-color="#181818" stop-opacity="0"/></linearGradient><linearGradient id="d" y2="44.984" gradientUnits="userSpaceOnUse" x2="19.36" y1="21.031" x1="19.245"><stop offset="0" stop-color="#fafafa"/><stop offset="1" stop-color="#f0f0f0"/></linearGradient><linearGradient gradientTransform="matrix(1.00587 0 0 .99417 100 0)" gradientUnits="userSpaceOnUse" id="a" y2="7.017" x2="45.448" y1="92.54" x1="45.448"><stop offset="0"/><stop offset="1" stop-opacity=".588"/></linearGradient><linearGradient y2="20.626" x2="1006.808" y1="484.417" x1="1012.513" gradientTransform="matrix(1.04025 0 0 1.04025 -837.951 592.518)" gradientUnits="userSpaceOnUse" id="t" xlink:href="#a"/><linearGradient y2="20.626" x2="1006.808" y1="484.417" x1="1012.513" gradientTransform="matrix(1.0233 0 0 1.0233 -823.777 592.838)" gradientUnits="userSpaceOnUse" id="u" xlink:href="#a"/><linearGradient y2="20.626" x2="1006.808" y1="484.417" x1="1012.513" gradientTransform="translate(-816.69 592.997) scale(1.01483)" gradientUnits="userSpaceOnUse" id="v" xlink:href="#a"/><linearGradient xlink:href="#a" id="w" gradientUnits="userSpaceOnUse" gradientTransform="matrix(1.00742 0 0 1.00742 -810.489 593.137)" x1="1012.513" y1="484.417" x2="1006.808" y2="20.626"/><linearGradient y2="363.738" x2="988.786" y1="51.512" x1="993.439" gradientTransform="translate(778.6 -360.56)" gradientUnits="userSpaceOnUse" id="y" xlink:href="#b"/><linearGradient id="b"><stop offset="0" stop-color="#fff"/><stop offset="1" stop-color="#fff" stop-opacity="0"/></linearGradient><linearGradient y2="-55.941" x2="1763.69" y1="155.597" x1="1764.649" gradientUnits="userSpaceOnUse" id="z" xlink:href="#c"/><linearGradient id="c"><stop offset="0"/><stop offset="1" stop-color="#fff" stop-opacity=".2"/></linearGradient><linearGradient id="e"><stop offset="0" stop-color="#181818"/><stop offset="1" stop-color="#181818" stop-opacity="0"/></linearGradient><linearGradient id="f"><stop offset="0" stop-color="#181818"/><stop offset="1" stop-color="#181818" stop-opacity="0"/></linearGradient><linearGradient y2="20.626" x2="1006.808" y1="484.417" x1="1012.513" gradientTransform="matrix(1.03178 0 0 1.03178 -830.864 592.678)" gradientUnits="userSpaceOnUse" id="s" xlink:href="#a"/><linearGradient id="h"><stop offset="0" stop-color="#787878"/><stop offset=".262" stop-color="#5a5a5a"/><stop offset=".661" stop-color="#3c3c3c"/><stop offset="1" stop-color="#141414"/></linearGradient><linearGradient id="i"><stop offset="0" stop-color="#141414"/><stop offset="1" stop-color="#646464"/></linearGradient><linearGradient id="j"><stop offset="0" stop-color="#fff"/><stop offset=".023" stop-color="#fff" stop-opacity=".157"/><stop offset=".975" stop-color="#fff" stop-opacity=".235"/><stop offset="1" stop-color="#fff" stop-opacity=".392"/></linearGradient><linearGradient id="k"><stop offset="0" stop-color="#3c3c3c"/><stop offset=".262" stop-color="#282828"/><stop offset=".661" stop-color="#141414"/><stop offset="1"/></linearGradient><linearGradient id="l"><stop offset="0"/><stop offset="1" stop-color="#141414"/></linearGradient><linearGradient id="m"><stop offset="0" stop-color="#fff"/><stop offset=".175" stop-color="#fff" stop-opacity=".157"/><stop offset=".829" stop-color="#fff" stop-opacity=".235"/><stop offset="1" stop-color="#fff" stop-opacity=".392"/></linearGradient><linearGradient id="n"><stop offset="0" stop-color="#fff"/><stop offset=".19" stop-color="#fff" stop-opacity=".157"/><stop offset=".846" stop-color="#fff" stop-opacity=".235"/><stop offset="1" stop-color="#fff" stop-opacity=".392"/></linearGradient><linearGradient id="o"><stop offset="0" stop-color="#333"/><stop offset="1" stop-color="#141414"/></linearGradient><linearGradient id="p"><stop offset="0" stop-color="#fff"/><stop offset=".288" stop-color="#fff" stop-opacity=".157"/><stop offset=".69" stop-color="#fff" stop-opacity=".235"/><stop offset="1" stop-color="#fff" stop-opacity=".392"/></linearGradient><linearGradient id="q"><stop offset="0" stop-color="#787878"/><stop offset=".262" stop-color="#5a5a5a"/><stop offset=".661" stop-color="#3c3c3c"/><stop offset="1" stop-color="#141414"/></linearGradient><linearGradient id="r"><stop offset="0" stop-color="#141414"/><stop offset="1" stop-color="#646464"/></linearGradient><radialGradient xlink:href="#q" id="x" gradientUnits="userSpaceOnUse" gradientTransform="matrix(0 27.13722 -36.3228 0 1098.88 -163.325)" cx="7.292" cy="23.558" fx="7.292" fy="23.558" r="20"/></defs><g transform="translate(-11.985 -592.117)" color="#000"><rect style="marker:none" width="487" height="487" x="31.985" y="612.117" ry="101.458" opacity=".1" fill="url(#s)" overflow="visible"/><rect ry="102.292" y="612.117" x="31.985" height="491" width="491" style="marker:none" opacity=".08" fill="url(#t)" overflow="visible"/><rect ry="100.625" y="612.117" x="31.985" height="483" width="483" style="marker:none" opacity=".2" fill="url(#u)" overflow="visible"/><rect style="marker:none" width="479" height="479" x="31.985" y="612.117" ry="99.792" opacity=".25" fill="url(#v)" overflow="visible"/><rect ry="99.063" y="612.117" x="31.985" height="475.5" width="475.5" style="marker:none" opacity=".25" fill="url(#w)" overflow="visible"/></g><path d="M118.344 20C63.867 20 20 63.867 20 118.344v275.312C20 448.133 63.867 492 118.344 492h275.312C448.133 492 492 448.133 492 393.656V118.344C492 63.867 448.133 20 393.656 20H118.344z" style="marker:none" fill="url(#x)" color="#000" overflow="visible"/><path d="M118.344 20C63.867 20 20 63.867 20 118.344v49.968h472v-49.968C492 63.867 448.133 20 393.656 20H118.344z" style="marker:none" fill="#141414" color="#000" fill-opacity=".784" overflow="visible"/><path d="M114.094 31.594a93.33 93.33 0 00-30.719 8.937L43.594 88.25h59l47.25-56.656h-35.75zm94.75 0l-47.25 56.656h59l47.25-56.656h-59zm118 0l-47.25 56.656h59l47.25-56.656h-59zm107.719 12.125l-36.97 44.531h59l10.563-12.719a93.752 93.752 0 00-32.594-31.812zM43.592 100.03l47.25 56.656h59l-47.25-56.656h-59zm118 0l47.25 56.656h59l-47.25-56.656h-59zm118 0l47.25 56.656h59l-47.25-56.656h-59zm118 0l46.844 56.438h35.75v-28.031l-23.593-28.407h-59z" fill="#fff"/><g color="#000"><path d="M1650.5-310.416c-54.477 0-98.313 43.836-98.313 98.312V63.24c0 54.477 43.836 98.344 98.312 98.344h2.938c-53.323 0-96.25-42.928-96.25-96.25v-269.5c0-53.323 42.927-96.25 96.25-96.25h269.5c53.322 0 96.25 42.927 96.25 96.25v269.5c0 53.322-42.928 96.25-96.25 96.25h2.906c54.477 0 98.344-43.867 98.344-98.344v-275.344c0-54.476-43.867-98.312-98.344-98.312H1650.5z" style="marker:none" opacity=".2" fill="url(#y)" overflow="visible" transform="translate(-1532.187 330.416)"/><path style="marker:none" d="M1650.5 161.584c-54.477 0-98.313-43.836-98.313-98.313v-275.343c0-54.477 43.836-98.344 98.312-98.344h2.938c-53.323 0-96.25 42.927-96.25 96.25v269.5c0 53.322 42.927 96.25 96.25 96.25h269.5c53.322 0 96.25-42.928 96.25-96.25v-269.5c0-53.323-42.928-96.25-96.25-96.25h2.906c54.477 0 98.344 43.867 98.344 98.344V63.27c0 54.477-43.867 98.313-98.344 98.313H1650.5z" opacity=".2" fill="url(#z)" overflow="visible" transform="translate(-1532.187 330.416)"/></g><path d="M191.5 213.969v204.375L266.813 492h126.843c40.858 0 75.734-24.68 90.625-60L368.5 316.156l-177-102.187z" fill-opacity=".314"/><path d="M368.5 316.156l-177 102.191V213.965z" fill="#fff"/></svg>